<svg width="7535" height="958" viewBox="0 0 7535 958" fill="none" xmlns="http://www.w3.org/2000/svg">
<path d="M150 779C150 861.843 150 629 150 929C67.1573 929 0 861.843 0 779C0 696.157 67.1573 629 150 629C150 994.5 150 696.157 150 779Z" fill="#8B5CF6"/>
<rect x="150" y="629" width="150" height="300" fill="#8B5CF6"/>
<circle cx="150" cy="179" r="150" fill="#6066FA"/>
<rect y="29" width="150" height="150" fill="#6066FA"/>
<rect x="150" y="179" width="150" height="150" fill="#6066FA"/>
<circle cx="150" cy="479" r="150" fill="#F59E0B"/>
<rect y="479" width="150" height="150" fill="#F59E0B"/>
<rect x="150" y="329" width="150" height="150" fill="#F59E0B"/>
<circle cx="450" cy="779" r="150" fill="#EF4444"/>
<path d="M1003 697H1083L1123.8 580.2H1367L1407.8 697H1487.8L1287.8 161.8H1203.8L1003 697ZM1245.4 237.8L1343.8 515.4H1147L1245.4 237.8ZM1575.03 697H1635.83L1722.23 377.8L1808.63 697H1870.23L1983.83 300.2H1911.83L1835.83 593.8L1757.43 300.2H1687.83L1608.63 593.8L1532.63 300.2H1460.62L1575.03 697ZM2208.86 706.6C2283.26 706.6 2337.66 673.8 2366.46 627.4L2301.66 608.2C2283.26 632.2 2253.66 647.4 2208.86 647.4C2160.06 647.4 2089.66 617 2086.46 517H2392.06C2400.06 403.4 2333.66 293.8 2207.26 293.8C2098.46 293.8 2014.46 373.8 2014.46 499.4C2014.46 616.2 2084.06 706.6 2208.86 706.6ZM2207.26 351.4C2277.66 351.4 2320.06 407.4 2320.86 463.4H2087.26C2093.66 383.4 2147.26 351.4 2207.26 351.4ZM2440.11 607.4C2466.51 675.4 2537.71 706.6 2606.51 706.6C2688.91 706.6 2768.11 663.4 2768.11 588.2C2768.11 419.4 2516.11 498.6 2516.11 402.6C2516.11 368.2 2555.31 349.8 2596.11 349.8C2633.71 349.8 2672.91 365 2686.51 397L2749.71 373.8C2725.71 318.6 2663.31 293 2600.91 293C2524.11 293 2448.11 332.2 2448.11 403.4C2448.11 561.8 2700.11 481.8 2700.11 590.6C2700.11 626.6 2653.71 649.8 2606.51 649.8C2562.51 649.8 2516.91 630.6 2504.91 583.4L2440.11 607.4ZM2822.28 500.2C2822.28 643.4 2921.48 706.6 3012.68 706.6C3104.68 706.6 3203.07 643.4 3203.07 500.2C3203.07 357 3104.68 293.8 3012.68 293.8C2921.48 293.8 2822.28 357 2822.28 500.2ZM2894.28 500.2C2894.28 397.8 2955.88 353 3012.68 353C3070.28 353 3131.08 397.8 3131.08 500.2C3131.08 602.6 3070.28 647.4 3012.68 647.4C2955.88 647.4 2894.28 602.6 2894.28 500.2ZM3289.28 300.2V697H3356.48V481.8C3356.48 397 3394.88 351.4 3452.48 351.4C3525.28 351.4 3537.28 405 3537.28 465.8V697H3604.48V481.8C3604.48 397 3642.08 351.4 3699.68 351.4C3773.28 351.4 3784.48 405 3784.48 465.8V697H3851.68V445.8C3851.68 355.4 3815.68 293.8 3723.68 293.8C3668.48 293.8 3622.08 314.6 3590.08 363.4C3572.48 320.2 3536.48 293.8 3475.68 293.8C3416.48 293.8 3378.88 322.6 3356.48 360.2L3338.88 300.2H3289.28ZM4122.14 706.6C4196.54 706.6 4250.94 673.8 4279.74 627.4L4214.94 608.2C4196.54 632.2 4166.94 647.4 4122.14 647.4C4073.34 647.4 4002.94 617 3999.74 517H4305.34C4313.34 403.4 4246.94 293.8 4120.54 293.8C4011.74 293.8 3927.74 373.8 3927.74 499.4C3927.74 616.2 3997.34 706.6 4122.14 706.6ZM4120.54 351.4C4190.94 351.4 4233.34 407.4 4234.14 463.4H4000.54C4006.94 383.4 4060.54 351.4 4120.54 351.4ZM4714.41 585.8V162.6H4588.01V697H4970.41V585.8H4714.41ZM5001.7 497C5001.7 640.2 5101.7 706.6 5212.1 706.6C5320.9 706.6 5421.7 640.2 5421.7 497C5421.7 353.8 5320.9 289 5212.1 289C5101.7 289 5001.7 353.8 5001.7 497ZM5212.1 383.4C5259.3 383.4 5297.7 413 5297.7 497C5297.7 580.2 5260.9 612.2 5212.1 612.2C5162.5 612.2 5125.7 580.2 5125.7 497C5125.7 413 5164.1 383.4 5212.1 383.4ZM5456.29 589.8C5456.29 661.8 5517.89 706.6 5593.09 706.6C5649.89 706.6 5696.29 690.6 5725.89 649L5740.29 697H5853.09C5845.09 662.6 5839.49 593.8 5839.49 541.8V454.6C5839.49 334.6 5776.29 289 5663.49 289C5572.29 289 5508.29 329 5481.89 381.8L5584.29 418.6C5592.29 386.6 5619.49 371.4 5653.09 371.4C5695.49 371.4 5719.49 388.2 5719.49 433.8V449C5565.89 460.2 5456.29 493 5456.29 589.8ZM5721.89 521V530.6C5721.89 603.4 5685.89 623.4 5637.89 623.4C5605.89 623.4 5581.89 606.6 5581.89 581C5581.89 539.4 5637.89 528.2 5721.89 521ZM6073.78 706.6C6116.98 706.6 6164.18 689 6197.78 643.4L6213.78 697H6329.78C6318.58 638.6 6316.18 581.8 6316.18 541.8V162.6H6194.58V354.6C6168.98 310.6 6116.98 289 6073.78 289C5971.38 289 5898.58 365.8 5898.58 495.4C5898.58 625 5971.38 706.6 6073.78 706.6ZM6112.98 383.4C6160.18 383.4 6200.18 417 6200.18 497.8C6200.18 580.2 6160.18 612.2 6112.98 612.2C6064.98 612.2 6024.98 569 6024.98 495.4C6024.98 422.6 6064.98 383.4 6112.98 383.4ZM6375.14 496.2C6375.14 627.4 6463.94 706.6 6592.74 706.6C6657.54 706.6 6724.74 678.6 6766.34 617.8L6669.54 582.6C6654.34 600.2 6627.14 612.2 6589.54 612.2C6544.74 612.2 6501.54 585 6497.54 529H6791.14C6799.14 389 6718.34 289 6587.94 289C6471.94 289 6375.14 369.8 6375.14 496.2ZM6591.14 379.4C6638.34 379.4 6676.74 405.8 6678.34 457H6497.54C6504.74 402.6 6545.54 379.4 6591.14 379.4ZM6970.66 697V497C6970.66 433.8 7002.66 408.2 7061.86 408.2C7073.06 408.2 7081.86 409 7094.66 410.6V289C7033.86 285.8 6991.46 309 6966.66 373L6945.06 300.2H6849.06V697H6970.66ZM7317.92 706.6C7424.32 706.6 7512.32 661 7512.32 567.4C7512.32 501 7467.52 473 7371.52 455.4L7297.92 441.8C7262.72 435.4 7249.12 425.8 7249.12 409.8C7249.12 389 7271.52 377.8 7314.72 377.8C7350.72 377.8 7381.12 385.8 7389.12 414.6L7491.52 377C7461.92 314.6 7391.52 289 7315.52 289C7217.12 289 7133.12 331.4 7133.12 414.6C7133.12 481 7185.92 520.2 7262.72 533L7333.92 545C7379.52 553 7395.52 564.2 7395.52 581C7395.52 605.8 7359.52 617.8 7320.32 617.8C7274.72 617.8 7238.72 601.8 7226.72 568.2L7123.52 605.8C7153.92 672.2 7225.12 706.6 7317.92 706.6Z" fill="#6066FA"/>
</svg>
