<svg width="873" height="965" viewBox="0 0 873 965" fill="none" xmlns="http://www.w3.org/2000/svg">
<path d="M861.83 962.934C861.83 962.582 861.97 962.244 862.219 961.995C862.468 961.746 862.806 961.606 863.158 961.606C863.51 961.606 863.848 961.746 864.097 961.995C864.346 962.244 864.486 962.582 864.486 962.934C864.486 963.286 864.346 963.624 864.097 963.873C863.848 964.122 863.51 964.262 863.158 964.262C862.806 964.262 862.468 964.122 862.219 963.873C861.97 963.624 861.83 963.286 861.83 962.934V962.934Z" fill="#E5E5E5"/>
<path style="mix-blend-mode:overlay" opacity="0.43" d="M736.971 701.562H119.043L350.014 201.676H506L736.971 701.562Z" fill="url(#paint0_linear)"/>
<path d="M105.562 561.774L113.394 524.448L154.562 515.115" stroke="#283035" stroke-width="8" stroke-linecap="round" stroke-linejoin="round"/>
<path d="M233.7 435.853H571.478C576.017 435.853 580.369 437.656 583.579 440.865C586.788 444.075 588.591 448.427 588.591 452.966V675.853H216.591V452.965C216.591 448.427 218.394 444.075 221.602 440.866C224.811 437.657 229.162 435.854 233.7 435.853V435.853Z" fill="#D2DCE6"/>
<path d="M233.7 435.853H571.478C576.017 435.853 580.369 437.656 583.579 440.865C586.788 444.075 588.591 448.427 588.591 452.966V675.853H216.591V452.965C216.591 448.427 218.394 444.075 221.602 440.866C224.811 437.657 229.162 435.854 233.7 435.853V435.853Z" stroke="#283035" stroke-width="6" stroke-linecap="round" stroke-linejoin="round"/>
<path d="M560.591 648.136V464.136H244.591V648.136H560.591Z" fill="#FF5C5C"/>
<path opacity="0.3" d="M428.007 618.781H480.007" stroke="white" stroke-width="6" stroke-linecap="round" stroke-linejoin="round"/>
<g opacity="0.3">
<path opacity="0.3" d="M554.78 561.585C555.781 561.522 556.774 561.798 557.599 562.368C558.423 562.938 559.032 563.77 559.327 564.728V553.273C558.229 552.952 557.091 552.786 555.947 552.781H554.78C552.264 552.781 551.006 554.039 551.007 556.554V557.9C551.007 560.327 552.264 561.585 554.78 561.585Z" fill="white"/>
<path opacity="0.3" d="M559.327 616.494C559.027 617.448 558.416 618.273 557.592 618.838C556.767 619.404 555.778 619.677 554.78 619.614C552.264 619.614 551.006 620.871 551.007 623.386V624.734C551.007 627.249 552.265 628.506 554.78 628.507H555.947C557.091 628.502 558.229 628.336 559.327 628.015V616.494Z" fill="white"/>
</g>
<path d="M560.591 648.136V464.136H244.591V648.136H560.591Z" stroke="#283035" stroke-width="6" stroke-linecap="round" stroke-linejoin="round"/>
<path d="M175.543 676H629.643C630.704 676 631.721 676.421 632.471 677.172C633.222 677.922 633.643 678.939 633.643 680V684.791C633.643 690.095 631.536 695.182 627.785 698.933C624.034 702.684 618.947 704.791 613.643 704.791H191.543C186.239 704.791 181.152 702.684 177.401 698.933C173.65 695.182 171.543 690.095 171.543 684.791V680C171.543 678.939 171.964 677.922 172.715 677.172C173.465 676.421 174.482 676 175.543 676Z" fill="#E5E5E5"/>
<path d="M613.639 695.787H191.539C186.743 695.784 182.108 694.056 178.48 690.919C174.852 687.782 172.474 683.445 171.778 678.7C171.627 679.117 171.548 679.556 171.543 680V684.791C171.543 690.095 173.65 695.182 177.401 698.933C181.152 702.684 186.239 704.791 191.543 704.791H613.643C618.947 704.791 624.034 702.684 627.785 698.933C631.536 695.182 633.643 690.095 633.643 684.791V680C633.638 679.556 633.559 679.117 633.408 678.7C632.712 683.447 630.332 687.784 626.703 690.922C623.073 694.059 618.436 695.786 613.639 695.787V695.787Z" fill="#CFD1D0"/>
<path d="M175.543 676H629.643C630.704 676 631.721 676.421 632.471 677.172C633.222 677.922 633.643 678.939 633.643 680V684.791C633.643 690.095 631.536 695.182 627.785 698.933C624.034 702.684 618.947 704.791 613.643 704.791H191.543C186.239 704.791 181.152 702.684 177.401 698.933C173.65 695.182 171.543 690.095 171.543 684.791V680C171.543 678.939 171.964 677.922 172.715 677.172C173.465 676.421 174.482 676 175.543 676Z" stroke="#283035" stroke-width="6" stroke-linecap="round" stroke-linejoin="round"/>
<path d="M360.591 675.853H444.591C444.591 677.975 443.748 680.01 442.248 681.51C440.748 683.01 438.713 683.853 436.591 683.853H368.591C366.469 683.853 364.434 683.01 362.934 681.51C361.434 680.01 360.591 677.975 360.591 675.853Z" fill="#686B6D"/>
<path d="M360.591 675.853H444.591C444.591 677.975 443.748 680.01 442.248 681.51C440.748 683.01 438.713 683.853 436.591 683.853H368.591C366.469 683.853 364.434 683.01 362.934 681.51C361.434 680.01 360.591 677.975 360.591 675.853Z" stroke="#283035" stroke-width="4" stroke-linecap="round" stroke-linejoin="round"/>
<path d="M401.804 457.619C406.222 457.619 409.804 454.037 409.804 449.619C409.804 445.201 406.222 441.619 401.804 441.619C397.386 441.619 393.804 445.201 393.804 449.619C393.804 454.037 397.386 457.619 401.804 457.619Z" fill="#686B6D"/>
<path d="M401.804 457.619C406.222 457.619 409.804 454.037 409.804 449.619C409.804 445.201 406.222 441.619 401.804 441.619C397.386 441.619 393.804 445.201 393.804 449.619C393.804 454.037 397.386 457.619 401.804 457.619Z" stroke="#283035" stroke-width="4" stroke-linecap="round" stroke-linejoin="round"/>
<path d="M76.4549 704.787H125.555C127.258 704.787 128.903 704.166 130.181 703.04C131.46 701.915 132.284 700.362 132.499 698.672L145.614 595.772H56.3999L69.5159 698.672C69.7311 700.361 70.5544 701.913 71.8316 703.039C73.1089 704.164 74.7525 704.786 76.4549 704.787V704.787Z" fill="#EAD57D"/>
<path d="M70.0479 595.774L80.4539 690.808C80.668 692.763 81.5962 694.57 83.0605 695.883C84.5248 697.196 86.4223 697.922 88.3889 697.922H132.6L132.505 698.672C132.29 700.362 131.466 701.915 130.187 703.04C128.909 704.166 127.264 704.787 125.561 704.787H76.4609C74.7578 704.787 73.1132 704.166 71.8351 703.04C70.5571 701.914 69.7332 700.361 69.5179 698.672L56.3999 595.774H70.0479Z" fill="#E5C66E"/>
<path d="M76.4549 704.787H125.555C127.258 704.787 128.903 704.166 130.181 703.04C131.46 701.915 132.284 700.362 132.499 698.672L145.614 595.772H56.3999L69.5159 698.672C69.7311 700.361 70.5544 701.913 71.8316 703.039C73.1089 704.164 74.7525 704.786 76.4549 704.787V704.787Z" stroke="#283035" stroke-width="6" stroke-linecap="round" stroke-linejoin="round"/>
<path d="M142.25 675.164L148.593 625.397H53.4199L59.7629 675.164H142.25Z" fill="#5CBF84"/>
<path d="M142.25 675.164L148.593 625.397H53.4199L59.7629 675.164H142.25Z" fill="#4FB277"/>
<path d="M141.856 669.414L147.175 625.397H67.3672L72.2672 665.921C72.3838 666.884 72.8491 667.771 73.5752 668.415C74.3013 669.059 75.2379 669.414 76.2082 669.414H141.856Z" fill="#5CBF84"/>
<path d="M142.25 675.164L148.593 625.397H53.4199L59.7629 675.164H142.25Z" stroke="#283035" stroke-width="6" stroke-linecap="round" stroke-linejoin="round"/>
<path d="M50.6679 595.773H151.346C157.421 595.773 162.346 590.848 162.346 584.773C162.346 578.698 157.421 573.773 151.346 573.773H50.6679C44.5928 573.773 39.6679 578.698 39.6679 584.773C39.6679 590.848 44.5928 595.773 50.6679 595.773Z" fill="#5CBF84"/>
<path d="M50.6679 595.773H151.346C157.421 595.773 162.346 590.848 162.346 584.773C162.346 578.698 157.421 573.773 151.346 573.773H50.6679C44.5928 573.773 39.6679 578.698 39.6679 584.773C39.6679 590.848 44.5928 595.773 50.6679 595.773Z" fill="#4FB277"/>
<path d="M62.044 591.023H153.72C158.483 591.023 162.345 587.161 162.345 582.398C162.345 577.634 158.483 573.773 153.72 573.773H62.044C57.2805 573.773 53.419 577.634 53.419 582.398C53.419 587.161 57.2805 591.023 62.044 591.023Z" fill="#5CBF84"/>
<path d="M50.6679 595.773H151.346C157.421 595.773 162.346 590.848 162.346 584.773C162.346 578.698 157.421 573.773 151.346 573.773H50.6679C44.5928 573.773 39.6679 578.698 39.6679 584.773C39.6679 590.848 44.5928 595.773 50.6679 595.773Z" stroke="#283035" stroke-width="6" stroke-linecap="round" stroke-linejoin="round"/>
<path d="M61.0059 573.774H141.006L139.423 561.774H62.5899L61.0059 573.774Z" fill="#5CBF84"/>
<path d="M62.5899 561.774H86.0619L80.5059 573.774H61.0059L62.5899 561.774Z" fill="#54AF79"/>
<path d="M61.0059 573.774H141.006L139.423 561.774H62.5899L61.0059 573.774Z" stroke="#283035" stroke-width="6" stroke-linecap="round" stroke-linejoin="round"/>
<path d="M644.134 704.886C644.179 697.227 647.253 689.897 652.685 684.497C658.117 679.097 665.464 676.066 673.124 676.066C680.783 676.066 688.131 679.097 693.562 684.497C698.994 689.897 702.068 697.227 702.113 704.886H644.134Z" fill="#E5E5E5"/>
<path d="M673.124 695.729C677.27 695.769 681.376 694.92 685.166 693.241C688.957 691.562 692.344 689.09 695.1 685.993C692.381 682.826 689.009 680.284 685.216 678.542C681.423 676.799 677.298 675.897 673.123 675.897C668.949 675.897 664.824 676.799 661.031 678.542C657.238 680.284 653.866 682.826 651.147 685.993C653.903 689.09 657.29 691.562 661.081 693.241C664.872 694.92 668.978 695.769 673.124 695.729V695.729Z" fill="#CFD1D0"/>
<path d="M644.134 704.886C644.179 697.227 647.253 689.897 652.685 684.497C658.117 679.097 665.464 676.066 673.124 676.066C680.783 676.066 688.131 679.097 693.562 684.497C698.994 689.897 702.068 697.227 702.113 704.886H644.134Z" stroke="#283035" stroke-width="6" stroke-linecap="round" stroke-linejoin="round"/>
<g style="mix-blend-mode:multiply" opacity="0.14">
<path d="M449.999 499.781H298.015C293.592 499.781 290.007 503.366 290.007 507.789V625.773C290.007 630.196 293.592 633.781 298.015 633.781H449.999C454.422 633.781 458.007 630.196 458.007 625.773V507.789C458.007 503.366 454.422 499.781 449.999 499.781Z" fill="black"/>
</g>
<path d="M442.166 492.781H290.182C285.759 492.781 282.174 496.366 282.174 500.789V618.773C282.174 623.196 285.759 626.781 290.182 626.781H442.166C446.589 626.781 450.174 623.196 450.174 618.773V500.789C450.174 496.366 446.589 492.781 442.166 492.781Z" fill="#353F49"/>
<path d="M442.166 492.781H290.182C285.759 492.781 282.174 496.366 282.174 500.789V618.773C282.174 623.196 285.759 626.781 290.182 626.781H442.166C446.589 626.781 450.174 623.196 450.174 618.773V500.789C450.174 496.366 446.589 492.781 442.166 492.781Z" stroke="#283035" stroke-width="4" stroke-linecap="round" stroke-linejoin="round"/>
<path d="M290.181 492.781H442.166C444.29 492.781 446.327 493.625 447.829 495.126C449.33 496.628 450.174 498.665 450.174 500.789V512.781H282.174V500.789C282.174 498.665 283.018 496.629 284.519 495.127C286.021 493.625 288.057 492.781 290.181 492.781Z" fill="#EAEEEF"/>
<path d="M290.181 492.781H442.166C444.29 492.781 446.327 493.625 447.829 495.126C449.33 496.628 450.174 498.665 450.174 500.789V512.781H282.174V500.789C282.174 498.665 283.018 496.629 284.519 495.127C286.021 493.625 288.057 492.781 290.181 492.781Z" stroke="#283035" stroke-width="4" stroke-linecap="round" stroke-linejoin="round"/>
<path opacity="0.35" d="M296.507 505.906C298.233 505.906 299.632 504.507 299.632 502.781C299.632 501.055 298.233 499.656 296.507 499.656C294.781 499.656 293.382 501.055 293.382 502.781C293.382 504.507 294.781 505.906 296.507 505.906Z" fill="#283035"/>
<path opacity="0.35" d="M306.34 505.906C308.066 505.906 309.465 504.507 309.465 502.781C309.465 501.055 308.066 499.656 306.34 499.656C304.614 499.656 303.215 501.055 303.215 502.781C303.215 504.507 304.614 505.906 306.34 505.906Z" fill="#283035"/>
<path opacity="0.35" d="M315.674 505.906C317.4 505.906 318.799 504.507 318.799 502.781C318.799 501.055 317.4 499.656 315.674 499.656C313.948 499.656 312.549 501.055 312.549 502.781C312.549 504.507 313.948 505.906 315.674 505.906Z" fill="#283035"/>
<path d="M290.007 519.781H301.007" stroke="#46BB86" stroke-width="3" stroke-miterlimit="10"/>
<path d="M305.007 519.781H335.007" stroke="#46BB86" stroke-width="3" stroke-miterlimit="10"/>
<path d="M290.007 527.781H335.007" stroke="#389ABE" stroke-width="3" stroke-miterlimit="10"/>
<path d="M299.007 535.781H321.007" stroke="#E5C689" stroke-width="3" stroke-miterlimit="10"/>
<path d="M325.007 535.781H349.007" stroke="#F2F3F4" stroke-width="3" stroke-miterlimit="10"/>
<path d="M311.007 543.781H357.007" stroke="#F2F3F4" stroke-width="3" stroke-miterlimit="10"/>
<path d="M311.007 551.781H345.007" stroke="#FFA49F" stroke-width="3" stroke-miterlimit="10"/>
<path d="M299.007 559.781H349.007" stroke="#F2F3F4" stroke-width="3" stroke-miterlimit="10"/>
<path d="M290.007 566.781H317.007" stroke="#389ABE" stroke-width="3" stroke-miterlimit="10"/>
<g opacity="0.3">
<path opacity="0.3" d="M522.643 605.522C522.643 601.57 521.115 598.786 518.061 597.079C515.905 595.911 515.007 595.012 515.007 592.947V589.447C515.007 587.022 516.085 586.483 517.971 585.225C521.115 583.878 522.643 581.004 522.643 576.692V569.056C522.643 562.948 524.888 558.456 528.122 556.57C530.541 554.845 533.417 553.876 536.386 553.785H537.554C540.069 553.785 541.326 555.043 541.327 557.558V558.9C541.327 561.325 540.069 562.583 537.554 562.583C534.054 562.583 532.344 565.098 532.344 570.218V579.65C532.433 581.94 531.863 584.207 530.7 586.182C529.538 588.156 527.832 589.756 525.787 590.789L524.978 591.058V591.238C525.9 591.51 526.756 591.969 527.493 592.586C529.739 593.932 532.344 597.077 532.344 602.556V613.066C532.344 618.096 534.051 620.612 537.554 620.612C540.069 620.612 541.326 621.869 541.327 624.384V625.732C541.327 628.247 540.069 629.504 537.554 629.505H536.386C533.417 629.414 530.541 628.445 528.122 626.72C524.888 624.834 522.643 620.253 522.643 614.234V605.522Z" fill="white"/>
</g>
<path d="M71.9229 653.683L73.9229 651.737C81.5123 657.889 90.9852 661.246 100.755 661.246C110.524 661.246 119.997 657.889 127.587 651.737L130.087 654.181" stroke="#283035" stroke-width="3" stroke-linecap="round" stroke-linejoin="round"/>
<path d="M94.624 643.6C94.624 642.464 94.173 641.376 93.3701 640.573C92.5673 639.77 91.4784 639.319 90.343 639.319V639.319C89.2076 639.319 88.1187 639.77 87.3159 640.573C86.513 641.376 86.062 642.464 86.062 643.6V647.521" stroke="#283035" stroke-width="3" stroke-linecap="round" stroke-linejoin="round"/>
<path d="M107.388 643.6C107.388 642.464 107.839 641.376 108.642 640.573C109.445 639.77 110.534 639.319 111.669 639.319V639.319C112.805 639.319 113.893 639.77 114.696 640.573C115.499 641.376 115.95 642.464 115.95 643.6V647.521" stroke="#283035" stroke-width="3" stroke-linecap="round" stroke-linejoin="round"/>
<path d="M803.641 574.886H725.841C720.815 574.886 716.741 578.96 716.741 583.986V695.786C716.741 700.812 720.815 704.886 725.841 704.886H803.641C808.667 704.886 812.741 700.812 812.741 695.786V583.986C812.741 578.96 808.667 574.886 803.641 574.886Z" fill="#E5E5E5"/>
<path d="M803.641 574.886H802.488C802.654 575.574 802.739 576.279 802.741 576.986V688.786C802.741 691.199 801.782 693.514 800.076 695.221C798.369 696.927 796.054 697.886 793.641 697.886H717C717.472 699.878 718.603 701.652 720.208 702.922C721.813 704.193 723.8 704.884 725.847 704.886H803.647C806.06 704.886 808.375 703.927 810.082 702.221C811.788 700.514 812.747 698.199 812.747 695.786V583.986C812.747 582.79 812.511 581.607 812.054 580.502C811.596 579.398 810.925 578.394 810.08 577.549C809.234 576.704 808.23 576.034 807.125 575.577C806.02 575.12 804.837 574.885 803.641 574.886V574.886Z" fill="#CFD1D0"/>
<path d="M803.641 574.886H725.841C720.815 574.886 716.741 578.96 716.741 583.986V695.786C716.741 700.812 720.815 704.886 725.841 704.886H803.641C808.667 704.886 812.741 700.812 812.741 695.786V583.986C812.741 578.96 808.667 574.886 803.641 574.886Z" stroke="#283035" stroke-width="6" stroke-linecap="round" stroke-linejoin="round"/>
<path d="M780.741 567.342H772.741V564.342C772.741 562.22 771.898 560.185 770.398 558.685C768.897 557.185 766.863 556.342 764.741 556.342C762.619 556.342 760.584 557.185 759.084 558.685C757.584 560.185 756.741 562.22 756.741 564.342V567.342H748.741C746.619 567.342 744.584 568.185 743.084 569.685C741.584 571.185 740.741 573.22 740.741 575.342C740.741 577.464 741.584 579.499 743.084 580.999C744.584 582.499 746.619 583.342 748.741 583.342H780.741C782.863 583.342 784.897 582.499 786.398 580.999C787.898 579.499 788.741 577.464 788.741 575.342C788.741 573.22 787.898 571.185 786.398 569.685C784.897 568.185 782.863 567.342 780.741 567.342Z" fill="#F7B66F"/>
<path d="M784.458 568.262C784.783 569.447 784.829 570.692 784.593 571.898C784.357 573.104 783.846 574.239 783.099 575.215C782.352 576.191 781.389 576.981 780.286 577.523C779.183 578.066 777.97 578.346 776.741 578.342H744.741C743.446 578.343 742.17 578.027 741.024 577.423C741.481 579.12 742.485 580.62 743.88 581.69C745.275 582.76 746.983 583.34 748.741 583.342H780.741C782.528 583.34 784.264 582.74 785.67 581.637C787.076 580.534 788.073 578.992 788.501 577.257C788.928 575.521 788.763 573.692 788.03 572.062C787.297 570.432 786.04 569.094 784.458 568.262Z" fill="#EDA762"/>
<path d="M768.741 559.342V562.342H772.479C772.2 561.262 771.698 560.252 771.006 559.377C770.313 558.502 769.445 557.781 768.458 557.262C768.644 557.94 768.739 558.639 768.741 559.342V559.342Z" fill="#EDA762"/>
<path d="M780.741 567.342H772.741V564.342C772.741 562.22 771.898 560.185 770.398 558.685C768.897 557.185 766.863 556.342 764.741 556.342C762.619 556.342 760.584 557.185 759.084 558.685C757.584 560.185 756.741 562.22 756.741 564.342V567.342H748.741C746.619 567.342 744.584 568.185 743.084 569.685C741.584 571.185 740.741 573.22 740.741 575.342C740.741 577.464 741.584 579.499 743.084 580.999C744.584 582.499 746.619 583.342 748.741 583.342H780.741C782.863 583.342 784.897 582.499 786.398 580.999C787.898 579.499 788.741 577.464 788.741 575.342C788.741 573.22 787.898 571.185 786.398 569.685C784.897 568.185 782.863 567.342 780.741 567.342Z" stroke="#283035" stroke-width="6" stroke-linecap="round" stroke-linejoin="round"/>
<path d="M764.741 612.342C769.343 612.342 773.074 608.611 773.074 604.009C773.074 599.407 769.343 595.676 764.741 595.676C760.139 595.676 756.408 599.407 756.408 604.009C756.408 608.611 760.139 612.342 764.741 612.342Z" fill="#8EAFBF"/>
<path d="M764.741 612.342C769.343 612.342 773.074 608.611 773.074 604.009C773.074 599.407 769.343 595.676 764.741 595.676C760.139 595.676 756.408 599.407 756.408 604.009C756.408 608.611 760.139 612.342 764.741 612.342Z" stroke="#283035" stroke-width="6" stroke-linecap="round" stroke-linejoin="round"/>
<path d="M732.964 629.676H752.964" stroke="#283035" stroke-width="6" stroke-linecap="round" stroke-linejoin="round"/>
<path d="M732.964 656.842H752.964" stroke="#283035" stroke-width="6" stroke-linecap="round" stroke-linejoin="round"/>
<path d="M732.964 684.009H752.964" stroke="#283035" stroke-width="6" stroke-linecap="round" stroke-linejoin="round"/>
<path d="M766.178 628.606L771.392 635.541L786.996 623.811" stroke="#8BAFC1" stroke-width="4" stroke-linecap="round" stroke-linejoin="round"/>
<path d="M766.178 655.772L771.392 662.708L786.996 650.977" stroke="#8BAFC1" stroke-width="4" stroke-linecap="round" stroke-linejoin="round"/>
<path d="M822.644 630.532L812.74 631.91L821.561 695.299L831.465 693.921L822.644 630.532Z" fill="#3BBC88"/>
<path d="M822.644 630.532L812.74 631.91L821.561 695.299L831.465 693.921L822.644 630.532Z" stroke="#283035" stroke-width="4" stroke-linecap="round" stroke-linejoin="round"/>
<path d="M831.467 693.92L821.562 695.298L827.893 704.513L831.467 693.92Z" fill="#E5E5E5"/>
<path d="M831.467 693.92L821.562 695.298L827.893 704.513L831.467 693.92Z" stroke="#283035" stroke-width="4" stroke-linecap="round" stroke-linejoin="round"/>
<path d="M818.986 620.463L813.046 621.291L814.426 631.191L820.366 630.363L818.986 620.463Z" fill="#E5E5E5"/>
<path d="M818.986 620.463L813.046 621.291L814.426 631.191L820.366 630.363L818.986 620.463Z" stroke="#283035" stroke-width="3.99829" stroke-linecap="round" stroke-linejoin="round"/>
<path d="M831.6 655.545C830.48 653.7 829.686 651.676 829.253 649.561C828.148 644.128 830.876 641.022 829.401 637.93C828.813 636.697 828.528 635.013 824.111 634.375" stroke="#283035" stroke-width="4" stroke-linecap="round" stroke-linejoin="round"/>
<path d="M843.75 704.886H869.5" stroke="#283035" stroke-width="6" stroke-linecap="round" stroke-linejoin="round"/>
<path d="M157.333 704.886H832.5" stroke="#283035" stroke-width="6" stroke-linecap="round" stroke-linejoin="round"/>
<path d="M37.75 704.886H145.616" stroke="#283035" stroke-width="6" stroke-linecap="round" stroke-linejoin="round"/>
<path d="M3.33301 704.886H26.5" stroke="#283035" stroke-width="6" stroke-linecap="round" stroke-linejoin="round"/>
<path d="M428.007 227.582C441.262 227.582 452.007 216.837 452.007 203.582C452.007 190.327 441.262 179.582 428.007 179.582C414.752 179.582 404.007 190.327 404.007 203.582C404.007 216.837 414.752 227.582 428.007 227.582Z" fill="white"/>
<path d="M359.111 209C357.89 208.996 356.684 208.733 355.573 208.229C354.461 207.724 353.469 206.99 352.662 206.074C351.856 205.158 351.252 204.081 350.892 202.915C350.532 201.749 350.423 200.519 350.573 199.308C355.238 159.7 388.127 129 428.007 129C467.887 129 500.776 159.7 505.44 199.308C505.59 200.52 505.481 201.749 505.121 202.916C504.761 204.082 504.157 205.159 503.35 206.075C502.543 206.991 501.551 207.725 500.439 208.23C499.327 208.734 498.121 208.996 496.9 209H359.111Z" fill="#F7B66F"/>
<path d="M440.007 129.944C439.749 129.903 439.488 129.874 439.229 129.836C438.32 129.702 437.406 129.581 436.487 129.479C436.069 129.432 435.65 129.394 435.23 129.354C434.468 129.282 433.705 129.217 432.941 129.173C432.497 129.147 432.056 129.114 431.611 129.093C430.416 129.037 429.211 129 428.011 129C426.811 129 425.611 129.036 424.423 129.093C423.874 129.119 423.329 129.162 422.783 129.199C422.193 129.24 421.603 129.282 421.016 129.337C420.296 129.402 419.58 129.48 418.866 129.566C418.517 129.608 418.166 129.655 417.822 129.702C381.798 134.525 353.495 164.538 350.31 201.951C350.231 202.845 350.338 203.746 350.626 204.597C350.913 205.447 351.375 206.229 351.98 206.891C352.586 207.554 353.322 208.084 354.143 208.447C354.965 208.81 355.852 208.998 356.75 209H499.268C500.158 209.003 501.039 208.821 501.856 208.466C502.672 208.112 503.407 207.592 504.012 206.94C504.618 206.287 505.082 205.517 505.376 204.676C505.669 203.836 505.785 202.944 505.717 202.056C502.629 165.22 475.2 135.518 440.007 129.944ZM377.031 186.929C380.432 174.568 386.78 163.216 395.53 153.846C404.28 144.476 415.172 137.368 427.271 133.129C439.381 137.359 450.284 144.464 459.044 153.835C467.804 163.206 474.159 174.562 477.565 186.929C477.997 188.527 478.055 190.204 477.733 191.828C477.411 193.452 476.719 194.981 475.711 196.294C474.702 197.607 473.404 198.67 471.918 199.399C470.431 200.129 468.797 200.505 467.141 200.5H387.456C385.8 200.506 384.165 200.129 382.678 199.4C381.192 198.67 379.894 197.608 378.885 196.295C377.876 194.981 377.184 193.453 376.862 191.829C376.541 190.204 376.598 188.527 377.031 186.929V186.929Z" fill="#EFAA65"/>
<path d="M359.178 209C357.949 208.997 356.734 208.732 355.614 208.225C354.494 207.717 353.495 206.978 352.682 206.055C351.869 205.133 351.262 204.049 350.899 202.874C350.536 201.699 350.427 200.461 350.578 199.241C355.275 159.661 388.15 129 428.007 129C467.864 129 500.739 159.661 505.432 199.241C505.583 200.461 505.474 201.699 505.111 202.874C504.749 204.049 504.141 205.133 503.328 206.056C502.515 206.978 501.516 207.718 500.396 208.225C499.276 208.733 498.061 208.997 496.832 209H359.178Z" stroke="#283035" stroke-width="6" stroke-linecap="round" stroke-linejoin="round"/>
<path d="M428.007 0V129" stroke="#283035" stroke-width="6" stroke-linejoin="round"/>
<defs>
<linearGradient id="paint0_linear" x1="428.007" y1="194.725" x2="428.007" y2="719.205" gradientUnits="userSpaceOnUse">
<stop stop-color="white"/>
<stop offset="0.093" stop-color="white" stop-opacity="0.864"/>
<stop offset="0.284" stop-color="white" stop-opacity="0.605"/>
<stop offset="0.466" stop-color="white" stop-opacity="0.389"/>
<stop offset="0.633" stop-color="white" stop-opacity="0.221"/>
<stop offset="0.784" stop-color="white" stop-opacity="0.1"/>
<stop offset="0.911" stop-color="white" stop-opacity="0.026"/>
<stop offset="1" stop-color="white" stop-opacity="0"/>
</linearGradient>
</defs>
</svg>
